<?xml version="1.0" encoding="utf-8"?><svg xmlns="http://www.w3.org/2000/svg" xmlns:xlink="http://www.w3.org/1999/xlink" width="1536" height="589" preserveAspectRatio="xMidYMid" viewBox="0 0 1536 589" style="z-index:1;margin-right:-2px;display:block;background-repeat-y:initial;background-repeat-x:initial;background-color:rgb(241, 242, 243);animation-play-state:paused" ><g transform="translate(768,294.5) scale(1,1) translate(-768,-294.5)" style="transform:matrix(1, 0, 0, 1, 0, 0);animation-play-state:paused" ><linearGradient id="lg-0.1515382699400316" x1="0" x2="1" y1="0" y2="0" style="animation-play-state:paused" ><stop stop-color="#2d3a51" offset="0" style="animation-play-state:paused" ></stop>

  
<stop stop-color="#2d3a51" offset="1" style="animation-play-state:paused" ></stop></linearGradient>
<path d="M 0 0 L 0 563.165 Q 153.6 558.645 307.2 514.453 T 614.4 436.087 T 921.6 313.661 T 1228.8 263.466 T 1536 307.769 L 1536 0 Z" fill="url(#lg-0.1515382699400316)" opacity="0.4" style="opacity:0.4;animation-play-state:paused" ></path>
<path d="M 0 0 L 0 521.066 Q 153.6 496.65 307.2 467.56 T 614.4 413.346 T 921.6 363.691 T 1228.8 312.465 T 1536 255.135 L 1536 0 Z" fill="url(#lg-0.1515382699400316)" opacity="0.4" style="opacity:0.4;animation-play-state:paused" ></path>
<path d="M 0 0 L 0 554.377 Q 153.6 492.215 307.2 455.134 T 614.4 452.061 T 921.6 349.279 T 1228.8 342.618 T 1536 285.106 L 1536 0 Z" fill="url(#lg-0.1515382699400316)" opacity="0.4" style="opacity:0.4;animation-play-state:paused" ></path>
<path d="M 0 0 L 0 512.883 Q 153.6 509.653 307.2 466.833 T 614.4 388.719 T 921.6 359.807 T 1228.8 302.324 T 1536 185.058 L 1536 0 Z" fill="url(#lg-0.1515382699400316)" opacity="0.4" style="opacity:0.4;animation-play-state:paused" ></path>
<path d="M 0 0 L 0 534.357 Q 153.6 454.556 307.2 428.234 T 614.4 423.11 T 921.6 378.164 T 1228.8 314.571 T 1536 245.305 L 1536 0 Z" fill="url(#lg-0.1515382699400316)" opacity="0.4" style="opacity:0.4;animation-play-state:paused" ></path></g></svg>